<svg width="946" height="305" version="1.1" xmlns="http://www.w3.org/2000/svg" desc="Created with imagetracer.js version 1.2.6" ><path fill="rgb(45,117,181)" stroke="rgb(45,117,181)" stroke-width="1" opacity="0.9215686274509803" d="M 12 21 L 216.5 21 L 260 22.5 L 257 40 L 789.5 40 L 790 35.5 L 793.5 22 L 848 22.5 L 845 40 L 927.5 40 L 928 45.5 L 898 215 L 12 214 L 12 21 Z M 21 30 L 22 204 L 203 32 L 203 30 L 21 30 Z M 202 35 L 115 118 L 170 202 L 202 40 L 202 35 Z M 215 35 L 186 201 L 187 202 L 215 202 L 223 159 L 223 154 L 236 154 L 228 201 L 229 202 L 257 202 L 270 131 L 270 125 L 229 125 L 231 116 L 232 112 L 273 112 L 283 57 L 283 53 L 254 53 L 249 81 L 249 83 L 236 83 L 245 37 L 245 35 L 215 35 Z M 803 35 L 798 64 L 827 64 L 833 37 L 833 35 L 803 35 Z M 296 53 L 270 201 L 271 202 L 341 202 L 346 173 L 304 173 L 306 162 L 308 160 L 349 160 L 367 57 L 367 53 L 296 53 Z M 380 53 L 354 201 L 355 202 L 383 202 L 404 85 L 405 82 L 417 82 L 396 202 L 425 202 L 451 57 L 451 53 L 380 53 Z M 464 53 L 438 201 L 439 202 L 509 202 L 535 57 L 535 53 L 464 53 Z M 548 53 L 533 138 L 534 142 L 574 142 L 569 173 L 556 173 L 559 160 L 559 155 L 530 155 L 522 201 L 523 202 L 593 202 L 609 114 L 567 113 L 572 86 L 573 82 L 585 82 L 582 99 L 583 100 L 611 100 L 619 57 L 619 53 L 548 53 Z M 632 53 L 606 201 L 607 202 L 677 202 L 703 57 L 703 53 L 632 53 Z M 716 53 L 690 201 L 691 202 L 719 202 L 740 85 L 741 82 L 753 82 L 732 202 L 761 202 L 787 57 L 787 53 L 716 53 Z M 842 53 L 816 201 L 817 202 L 887 202 L 899 136 L 899 131 L 870 131 L 863 173 L 850 173 L 866 86 L 867 82 L 879 82 L 873 115 L 874 118 L 902 118 L 913 58 L 913 53 L 842 53 Z M 796 77 L 774 200 L 775 202 L 803 202 L 825 80 L 825 77 L 796 77 Z M 114 119 L 24 205 L 168 205 L 114 119 Z " /><path fill="rgb(45,117,181)" stroke="rgb(45,117,181)" stroke-width="1" opacity="0.9215686274509803" d="M 320 82 L 332.5 82 L 333 85.5 L 325 131 L 312 131 L 312 126.5 L 320 82 Z " /><path fill="rgb(45,117,181)" stroke="rgb(45,117,181)" stroke-width="1" opacity="0.9215686274509803" d="M 488 82 L 500.5 82 L 501 85.5 L 485 173 L 472 172.5 L 488 82 Z " /><path fill="rgb(45,117,181)" stroke="rgb(45,117,181)" stroke-width="1" opacity="0.9215686274509803" d="M 656 82 L 668.5 82 L 669 85.5 L 653 173 L 640 172.5 L 656 82 Z " /><path fill="rgb(45,117,181)" stroke="rgb(45,117,181)" stroke-width="1" opacity="0.9215686274509803" d="M 12 232 L 176 234.5 L 95.5 296 L 12 235.5 L 12 232 Z M 39 242 L 95 283 L 95 243 L 39 242 Z M 96 243 L 97 283 L 148 244 L 96 243 Z " /><path fill="rgb(0,0,0)" stroke="rgb(0,0,0)" stroke-width="1" opacity="0" d="M 0 0 L 945.5 0 L 946 0.5 L 946 305 L 0.5 305 L 0 304.5 L 0 0 Z M 12 21 L 12 214 L 898 215 L 928 46 L 928 40 L 845 40 L 848 23 L 794 22 L 790 36 L 790 40 L 257 40 L 260 23 L 217 21 L 12 21 Z M 12 232 L 12 236 L 96 296 L 176 235 L 12 232 Z " /><path fill="rgb(0,0,0)" stroke="rgb(0,0,0)" stroke-width="1" opacity="0" d="M 21 30 L 202.5 30 L 203 31.5 L 21.5 204 L 21 30 Z " /><path fill="rgb(0,0,0)" stroke="rgb(0,0,0)" stroke-width="1" opacity="0" d="M 202.5 34 L 202 35.5 L 197 68.5 L 169.5 202 L 115 117.5 L 202.5 34 Z " /><path fill="rgb(0,0,0)" stroke="rgb(0,0,0)" stroke-width="1" opacity="0" d="M 215 35 L 244.5 35 L 245 36.5 L 236 83 L 248.5 83 L 249 80.5 L 254 53 L 282.5 53 L 283 56.5 L 273 112 L 231.5 112 L 231 115.5 L 229 125 L 269.5 125 L 270 130.5 L 257 202 L 228.5 202 L 228 200.5 L 236 154 L 223 154 L 223 158.5 L 215 202 L 186.5 202 L 186 200.5 L 215 35 Z " /><path fill="rgb(0,0,0)" stroke="rgb(0,0,0)" stroke-width="1" opacity="0" d="M 803 35 L 832.5 35 L 833 36.5 L 826.5 64 L 798 63.5 L 803 35 Z " /><path fill="rgb(0,0,0)" stroke="rgb(0,0,0)" stroke-width="1" opacity="0" d="M 296 53 L 366.5 53 L 367 56.5 L 349 160 L 307.5 160 L 306 161.5 L 304 172.5 L 346 173 L 341 202 L 270.5 202 L 270 200.5 L 296 53 Z M 320 82 L 312 127 L 312 131 L 325 131 L 333 86 L 333 82 L 320 82 Z " /><path fill="rgb(0,0,0)" stroke="rgb(0,0,0)" stroke-width="1" opacity="0" d="M 380 53 L 450.5 53 L 451 56.5 L 425 202 L 396 201.5 L 417 82 L 404.5 82 L 404 84.5 L 383 202 L 354.5 202 L 354 200.5 L 380 53 Z " /><path fill="rgb(0,0,0)" stroke="rgb(0,0,0)" stroke-width="1" opacity="0" d="M 464 53 L 534.5 53 L 535 56.5 L 509 202 L 438.5 202 L 438 200.5 L 464 53 Z M 488 82 L 472 173 L 485 173 L 501 86 L 501 82 L 488 82 Z " /><path fill="rgb(0,0,0)" stroke="rgb(0,0,0)" stroke-width="1" opacity="0" d="M 548 53 L 618.5 53 L 619 56.5 L 611 100 L 582.5 100 L 582 98.5 L 585 82 L 572.5 82 L 572 85.5 L 567 113 L 609 113.5 L 593 202 L 522.5 202 L 522 200.5 L 530 155 L 558.5 155 L 559 159.5 L 556 172.5 L 569 173 L 574 142 L 533.5 142 L 533 137.5 L 548 53 Z " /><path fill="rgb(0,0,0)" stroke="rgb(0,0,0)" stroke-width="1" opacity="0" d="M 632 53 L 702.5 53 L 703 56.5 L 677 202 L 606.5 202 L 606 200.5 L 632 53 Z M 656 82 L 640 173 L 653 173 L 669 86 L 669 82 L 656 82 Z " /><path fill="rgb(0,0,0)" stroke="rgb(0,0,0)" stroke-width="1" opacity="0" d="M 716 53 L 786.5 53 L 787 56.5 L 761 202 L 732 201.5 L 753 82 L 740.5 82 L 740 84.5 L 719 202 L 690.5 202 L 690 200.5 L 716 53 Z " /><path fill="rgb(0,0,0)" stroke="rgb(0,0,0)" stroke-width="1" opacity="0" d="M 842 53 L 912.5 53 L 913 57.5 L 902 118 L 873.5 118 L 873 114.5 L 879 82 L 866.5 82 L 866 85.5 L 850 172.5 L 863 173 L 870 131 L 898.5 131 L 899 135.5 L 887 202 L 816.5 202 L 816 200.5 L 842 53 Z " /><path fill="rgb(0,0,0)" stroke="rgb(0,0,0)" stroke-width="1" opacity="0" d="M 796 77 L 824.5 77 L 825 79.5 L 803 202 L 774.5 202 L 774 199.5 L 796 77 Z " /><path fill="rgb(0,0,0)" stroke="rgb(0,0,0)" stroke-width="1" opacity="0" d="M 113.5 119 L 168 205 L 24 204.5 L 113.5 119 Z " /><path fill="rgb(0,0,0)" stroke="rgb(0,0,0)" stroke-width="1" opacity="0" d="M 38.5 242 L 95 243 L 94.5 283 L 38.5 242 Z " /><path fill="rgb(0,0,0)" stroke="rgb(0,0,0)" stroke-width="1" opacity="0" d="M 96 243 L 148 243.5 L 96.5 283 L 96 243 Z " /></svg>